# xmcd
#
# Track frame offsets: 
#        150
#        21710
#        40332
#        54677
#        83702
#        99160
#        117030
#        141750
#        165722
#        187097
#        203940
#        225680
#
# Disc length: 3249 seconds
#
# Revision: 2
# Processed by: cddbd v1.4PL0 Copyright (c) Steve Scherf et al.
# Submitted via: ExactAudioCopy v0.90b3
#
DISCID=a40caf0c
DTITLE=John Lee Hooker - Chill Out
DYEAR=1995
DGENRE=Blues
TTITLE0=Chill Out (Things Gonna Change)
TTITLE1=Deep Blue Sea
TTITLE2=Kiddio
TTITLE3=Medley Serves Me Right To Suffer - Syndicator
TTITLE4=One Bourbon, One Scotch, One Beer
TTITLE5=Tupelo
TTITLE6=Woman On My Mind
TTITLE7=Annie Mae
TTITLE8=Too Young
TTITLE9=Talkin' The Blues
TTITLE10=If You've Never Been In Love
TTITLE11=We'll Meet Again
EXTD=
EXTT0=
EXTT1=
EXTT2=
EXTT3=
EXTT4=
EXTT5=
EXTT6=
EXTT7=
EXTT8=
EXTT9=
EXTT10=
EXTT11=
PLAYORDER=
